# xmcd
#
# Track frame offsets:
# 150
# 21369
# 53877
# 75422
# 96118
# 134829
# 162719
#
# Disc length: 2490 seconds
#
# Revision: 0
# Processed by: cddbd v1.4PL0 Copyright (c) Steve Scherf et al.
# Submitted via: Audion 2.6.0 (http://www.panic.com/audion/)
#
DISCID=5c09b807
DTITLE=salif keita - ko-yan
DYEAR=1900
DGENRE=
TTITLE0=yada
TTITLE1=nous pas bouger
TTITLE2=ko-yan
TTITLE3=feso
TTITLE4=primpin
TTITLE5=tenin
TTITLE6=sabou
EXTD=
EXTT0=
EXTT1=
EXTT2=
EXTT3=
EXTT4=
EXTT5=
EXTT6=
PLAYORDER=
